<svg xmlns="http://www.w3.org/2000/svg" viewBox="0 0 800 600">
  <defs>
    <linearGradient id="gold" x1="0" y1="0" x2="1" y2="1"><stop offset="0%" stop-color="#c9a84c"/><stop offset="50%" stop-color="#d4b86a"/><stop offset="100%" stop-color="#8b6914"/></linearGradient>
    <pattern id="dots" width="40" height="40" patternUnits="userSpaceOnUse"><circle cx="20" cy="20" r="0.5" fill="#8b6914" opacity="0.06"/></pattern>
  </defs>
  <rect width="800" height="600" fill="#fafaf8"/><rect width="800" height="600" fill="url(#dots)"/>
  <!-- Nightstand -->
  <g transform="translate(400,220)" stroke="url(#gold)" fill="none" stroke-width="1.8" stroke-linecap="round" stroke-linejoin="round" opacity="0.35">
    <rect x="-70" y="-45" width="140" height="95" rx="2"/>
    <line x1="-70" y1="0" x2="70" y2="0"/>
    <!-- Drawer handles -->
    <line x1="-40" y1="-22" x2="40" y2="-22"/>
    <line x1="-40" y1="22" x2="40" y2="22"/>
    <!-- Lamp on top -->
    <line x1="30" y1="-45" x2="30" y2="-70"/><line x1="10" y1="-70" x2="50" y2="-70"/>
    <path d="M15,-85 Q30,-100 45,-85"/>
    <!-- Legs -->
    <line x1="-60" y1="50" x2="-60" y2="80"/><line x1="60" y1="50" x2="60" y2="80"/>
    <rect x="-70" y="78" width="140" height="3" rx="1"/>
  </g>
  <text x="400" y="380" text-anchor="middle" font-family="'Noto Serif SC','STSong','SimSun',serif" font-size="32" font-weight="500" letter-spacing="6" fill="#1a1a1a">意式极简床头柜</text>
  <text x="400" y="415" text-anchor="middle" font-family="'Helvetica Neue',Arial,sans-serif" font-size="13" letter-spacing="5" fill="#999">SP-BT-3305</text>
  <line x1="340" y1="435" x2="460" y2="435" stroke="url(#gold)" stroke-width="1" stroke-linecap="round"/>
</svg>
