<svg xmlns="http://www.w3.org/2000/svg" viewBox="0 0 800 600">
  <defs>
    <linearGradient id="gold" x1="0" y1="0" x2="1" y2="1"><stop offset="0%" stop-color="#c9a84c"/><stop offset="50%" stop-color="#d4b86a"/><stop offset="100%" stop-color="#8b6914"/></linearGradient>
    <pattern id="dots" width="40" height="40" patternUnits="userSpaceOnUse"><circle cx="20" cy="20" r="0.5" fill="#8b6914" opacity="0.06"/></pattern>
  </defs>
  <rect width="800" height="600" fill="#fafaf8"/><rect width="800" height="600" fill="url(#dots)"/>
  <!-- Bookshelf -->
  <g transform="translate(400,210)" stroke="url(#gold)" fill="none" stroke-width="1.8" stroke-linecap="round" stroke-linejoin="round" opacity="0.35">
    <rect x="-140" y="-95" width="280" height="160" rx="2"/>
    <line x1="-140" y1="-55" x2="140" y2="-55"/><line x1="-140" y1="-15" x2="140" y2="-15"/>
    <line x1="-140" y1="25" x2="140" y2="25"/>
    <!-- Vertical dividers -->
    <line x1="-70" y1="-95" x2="-70" y2="65"/><line x1="0" y1="-95" x2="0" y2="65"/><line x1="70" y1="-95" x2="70" y2="65"/>
    <!-- Books in cells -->
    <rect x="-130" y="-90" width="10" height="30" rx="1"/><rect x="-115" y="-85" width="8" height="25" rx="1"/>
    <rect x="-50" y="-90" width="12" height="30" rx="1"/><rect x="-35" y="-88" width="9" height="28" rx="1"/>
    <rect x="10" y="-50" width="10" height="30" rx="1"/><rect x="25" y="-48" width="8" height="25" rx="1"/>
    <rect x="80" y="-50" width="12" height="30" rx="1"/>
    <rect x="-130" y="30" width="12" height="30" rx="1"/><rect x="10" y="30" width="10" height="30" rx="1"/>
  </g>
  <text x="400" y="380" text-anchor="middle" font-family="'Noto Serif SC','STSong','SimSun',serif" font-size="32" font-weight="500" letter-spacing="6" fill="#1a1a1a">极简组合书柜</text>
  <text x="400" y="415" text-anchor="middle" font-family="'Helvetica Neue',Arial,sans-serif" font-size="13" letter-spacing="5" fill="#999">SP-BK-6607</text>
  <line x1="340" y1="435" x2="460" y2="435" stroke="url(#gold)" stroke-width="1" stroke-linecap="round"/>
</svg>
