<svg xmlns="http://www.w3.org/2000/svg" viewBox="0 0 800 600"><defs><linearGradient id="bg" x1="0" y1="0" x2="0" y2="1"><stop offset="0%" stop-color="#fafaf7"/><stop offset="100%" stop-color="#f5f0e8"/></linearGradient><linearGradient id="gold" x1="0" y1="0" x2="1" y2="1"><stop offset="0%" stop-color="#c9a84c"/><stop offset="100%" stop-color="#8b6914"/></linearGradient><filter id="shadow" x="-5%" y="-5%" width="115%" height="115%"><feDropShadow dx="0" dy="8" stdDeviation="16" flood-color="#2C1810" flood-opacity="0.08"/></filter><pattern id="texture" width="60" height="60" patternUnits="userSpaceOnUse"><circle cx="30" cy="30" r="0.3" fill="#8b6914" opacity="0.03"/></pattern></defs><rect width="800" height="600" fill="url(#bg)"/><rect width="800" height="600" fill="url(#texture)"/>
<g transform="translate(400,265)" filter="url(#shadow)"><rect x="-200" y="-60" width="400" height="130" rx="3" fill="#2C1810" fill-opacity="0.03" stroke="#1a1a1a" stroke-width="2.5" stroke-linejoin="round"/><line x1="-110" y1="-60" x2="-110" y2="70" stroke="#1a1a1a" stroke-width="2" stroke-linecap="round"/><line x1="0" y1="-60" x2="0" y2="70" stroke="#1a1a1a" stroke-width="2" stroke-linecap="round"/><line x1="110" y1="-60" x2="110" y2="70" stroke="#1a1a1a" stroke-width="2" stroke-linecap="round"/><line x1="-200" y1="0" x2="200" y2="0" stroke="#1a1a1a" stroke-width="1.5"/><line x1="-155" y1="-30" x2="-65" y2="-30" stroke="#8b6914" stroke-width="0.8" opacity="0.3"/><line x1="65" y1="-30" x2="155" y2="-30" stroke="#8b6914" stroke-width="0.8" opacity="0.3"/><line x1="-155" y1="30" x2="-65" y2="30" stroke="#8b6914" stroke-width="0.8" opacity="0.3"/><line x1="65" y1="30" x2="155" y2="30" stroke="#8b6914" stroke-width="0.8" opacity="0.3"/><line x1="-185" y1="70" x2="-185" y2="105" stroke="#1a1a1a" stroke-width="2.5" stroke-linecap="round"/><line x1="185" y1="70" x2="185" y2="105" stroke="#1a1a1a" stroke-width="2.5" stroke-linecap="round"/><rect x="-205" y="103" width="410" height="3" rx="1" fill="#2C1810" fill-opacity="0.04" stroke="#1a1a1a" stroke-width="1"/></g><rect x="320" y="445" width="160" height="1.5" fill="url(#gold)" rx="0.5"/><text x="400" y="480" text-anchor="middle" font-family="'Noto Serif SC','STSong',serif" font-size="28" font-weight="500" letter-spacing="8" fill="#1a1a1a">现代简约餐边柜</text><text x="400" y="510" text-anchor="middle" font-family="'Helvetica Neue',Arial,sans-serif" font-size="11" letter-spacing="6" fill="#999">SP-CB-6601</text></svg>
