<svg xmlns="http://www.w3.org/2000/svg" viewBox="0 0 800 600"><defs><linearGradient id="bg" x1="0" y1="0" x2="0" y2="1"><stop offset="0%" stop-color="#fafaf7"/><stop offset="100%" stop-color="#f5f0e8"/></linearGradient><linearGradient id="gold" x1="0" y1="0" x2="1" y2="1"><stop offset="0%" stop-color="#c9a84c"/><stop offset="100%" stop-color="#8b6914"/></linearGradient><filter id="shadow" x="-5%" y="-5%" width="115%" height="115%"><feDropShadow dx="0" dy="8" stdDeviation="16" flood-color="#2C1810" flood-opacity="0.08"/></filter><pattern id="texture" width="60" height="60" patternUnits="userSpaceOnUse"><circle cx="30" cy="30" r="0.3" fill="#8b6914" opacity="0.03"/></pattern></defs><rect width="800" height="600" fill="url(#bg)"/><rect width="800" height="600" fill="url(#texture)"/>
<g transform="translate(400,255)" filter="url(#shadow)"><ellipse cx="0" cy="0" rx="230" ry="40" fill="#2C1810" fill-opacity="0.03" stroke="#1a1a1a" stroke-width="2.5"/><line x1="-200" y1="35" x2="-200" y2="115" stroke="#1a1a1a" stroke-width="2.5" stroke-linecap="round"/><line x1="200" y1="35" x2="200" y2="115" stroke="#1a1a1a" stroke-width="2.5" stroke-linecap="round"/><line x1="-120" y1="38" x2="-120" y2="115" stroke="#1a1a1a" stroke-width="2" stroke-linecap="round"/><line x1="120" y1="38" x2="120" y2="115" stroke="#1a1a1a" stroke-width="2" stroke-linecap="round"/><rect x="-230" y="113" width="460" height="4" rx="1" fill="#2C1810" fill-opacity="0.04" stroke="#1a1a1a" stroke-width="1.5"/><g transform="translate(-60,-55)"><rect x="-22" y="0" width="44" height="50" rx="4" fill="#2C1810" fill-opacity="0.02" stroke="#1a1a1a" stroke-width="1.8"/><rect x="-18" y="5" width="36" height="40" rx="2" fill="none" stroke="#8b6914" stroke-width="0.6" opacity="0.3"/></g><g transform="translate(60,-55)"><rect x="-22" y="0" width="44" height="50" rx="4" fill="#2C1810" fill-opacity="0.02" stroke="#1a1a1a" stroke-width="1.8"/><rect x="-18" y="5" width="36" height="40" rx="2" fill="none" stroke="#8b6914" stroke-width="0.6" opacity="0.3"/></g><g transform="translate(-150,-40)"><rect x="-18" y="0" width="36" height="42" rx="3" fill="#2C1810" fill-opacity="0.02" stroke="#1a1a1a" stroke-width="1.5"/></g><g transform="translate(150,-40)"><rect x="-18" y="0" width="36" height="42" rx="3" fill="#2C1810" fill-opacity="0.02" stroke="#1a1a1a" stroke-width="1.5"/></g></g><rect x="320" y="445" width="160" height="1.5" fill="url(#gold)" rx="0.5"/><text x="400" y="480" text-anchor="middle" font-family="'Noto Serif SC','STSong',serif" font-size="28" font-weight="500" letter-spacing="8" fill="#1a1a1a">意式岩板伸缩餐桌</text><text x="400" y="510" text-anchor="middle" font-family="'Helvetica Neue',Arial,sans-serif" font-size="11" letter-spacing="6" fill="#999">SP-DT-7703</text></svg>
