<svg xmlns="http://www.w3.org/2000/svg" viewBox="0 0 800 600"><defs><linearGradient id="bg" x1="0" y1="0" x2="0" y2="1"><stop offset="0%" stop-color="#fafaf7"/><stop offset="100%" stop-color="#f5f0e8"/></linearGradient><linearGradient id="gold" x1="0" y1="0" x2="1" y2="1"><stop offset="0%" stop-color="#c9a84c"/><stop offset="100%" stop-color="#8b6914"/></linearGradient><filter id="shadow" x="-5%" y="-5%" width="115%" height="115%"><feDropShadow dx="0" dy="8" stdDeviation="16" flood-color="#2C1810" flood-opacity="0.08"/></filter><pattern id="texture" width="60" height="60" patternUnits="userSpaceOnUse"><circle cx="30" cy="30" r="0.3" fill="#8b6914" opacity="0.03"/></pattern></defs><rect width="800" height="600" fill="url(#bg)"/><rect width="800" height="600" fill="url(#texture)"/>
<g transform="translate(400,270)" filter="url(#shadow)"><path d="M-80,55 L-80,-55 Q-80,-95 0,-95 Q80,-95 80,-55 L80,55" fill="#2C1810" fill-opacity="0.03" stroke="#1a1a1a" stroke-width="2.5" stroke-linejoin="round"/><path d="M-80,55 L-110,85 L-110,130 L80,130 L80,85 L80,55" fill="#2C1810" fill-opacity="0.04" stroke="#1a1a1a" stroke-width="2.5" stroke-linejoin="round"/><line x1="-110" y1="130" x2="-110" y2="160" stroke="#1a1a1a" stroke-width="3" stroke-linecap="round"/><line x1="80" y1="130" x2="80" y2="160" stroke="#1a1a1a" stroke-width="3" stroke-linecap="round"/><path d="M-70,10 Q0,30 70,10" fill="none" stroke="#8b6914" stroke-width="1.2" opacity="0.4"/></g><rect x="320" y="445" width="160" height="1.5" fill="url(#gold)" rx="0.5"/><text x="400" y="480" text-anchor="middle" font-family="'Noto Serif SC','STSong',serif" font-size="28" font-weight="500" letter-spacing="8" fill="#1a1a1a">意式极简单人休闲椅</text><text x="400" y="510" text-anchor="middle" font-family="'Helvetica Neue',Arial,sans-serif" font-size="11" letter-spacing="6" fill="#999">SP-LC-1109</text></svg>
