<svg xmlns="http://www.w3.org/2000/svg" viewBox="0 0 800 600"><defs><linearGradient id="bg" x1="0" y1="0" x2="0" y2="1"><stop offset="0%" stop-color="#fafaf7"/><stop offset="100%" stop-color="#f5f0e8"/></linearGradient><linearGradient id="gold" x1="0" y1="0" x2="1" y2="1"><stop offset="0%" stop-color="#c9a84c"/><stop offset="100%" stop-color="#8b6914"/></linearGradient><filter id="shadow" x="-5%" y="-5%" width="115%" height="115%"><feDropShadow dx="0" dy="8" stdDeviation="16" flood-color="#2C1810" flood-opacity="0.08"/></filter><pattern id="texture" width="60" height="60" patternUnits="userSpaceOnUse"><circle cx="30" cy="30" r="0.3" fill="#8b6914" opacity="0.03"/></pattern></defs><rect width="800" height="600" fill="url(#bg)"/><rect width="800" height="600" fill="url(#texture)"/>
<g transform="translate(400,255)" filter="url(#shadow)"><rect x="-200" y="-20" width="400" height="24" rx="2" fill="#2C1810" fill-opacity="0.03" stroke="#1a1a1a" stroke-width="2.5" stroke-linejoin="round"/><rect x="-185" y="-4" width="20" height="75" rx="2" fill="#2C1810" fill-opacity="0.02" stroke="#1a1a1a" stroke-width="2"/><rect x="165" y="-4" width="20" height="75" rx="2" fill="#2C1810" fill-opacity="0.02" stroke="#1a1a1a" stroke-width="2"/><rect x="-175" y="62" width="350" height="14" rx="2" fill="#2C1810" fill-opacity="0.03" stroke="#1a1a1a" stroke-width="2"/><rect x="-190" y="76" width="380" height="4" rx="1" fill="#2C1810" fill-opacity="0.04" stroke="#1a1a1a" stroke-width="1.5"/><rect x="-15" y="-65" width="55" height="45" rx="3" fill="#2C1810" fill-opacity="0.02" stroke="#1a1a1a" stroke-width="1.8"/><line x1="12" y1="-20" x2="12" y2="-8" stroke="#1a1a1a" stroke-width="1.5"/><path d="M135,-18 L142,-35 L130,-35 M135,-8 L142,5 L130,5" fill="none" stroke="#8b6914" stroke-width="1.2" opacity="0.4"/></g><rect x="320" y="445" width="160" height="1.5" fill="url(#gold)" rx="0.5"/><text x="400" y="480" text-anchor="middle" font-family="'Noto Serif SC','STSong',serif" font-size="28" font-weight="500" letter-spacing="8" fill="#1a1a1a">智能升降办公桌</text><text x="400" y="510" text-anchor="middle" font-family="'Helvetica Neue',Arial,sans-serif" font-size="11" letter-spacing="6" fill="#999">SP-OD-1500</text></svg>
