<svg xmlns="http://www.w3.org/2000/svg" viewBox="0 0 800 600">
  <defs>
    <linearGradient id="gold" x1="0" y1="0" x2="1" y2="1"><stop offset="0%" stop-color="#c9a84c"/><stop offset="50%" stop-color="#d4b86a"/><stop offset="100%" stop-color="#8b6914"/></linearGradient>
    <pattern id="dots" width="40" height="40" patternUnits="userSpaceOnUse"><circle cx="20" cy="20" r="0.5" fill="#8b6914" opacity="0.06"/></pattern>
  </defs>
  <rect width="800" height="600" fill="#fafaf8"/><rect width="800" height="600" fill="url(#dots)"/>
  <!-- Desk -->
  <g transform="translate(400,220)" stroke="url(#gold)" fill="none" stroke-width="1.8" stroke-linecap="round" stroke-linejoin="round" opacity="0.35">
    <rect x="-150" y="-15" width="300" height="15" rx="2"/>
    <line x1="-140" y1="0" x2="-140" y2="80"/><line x1="140" y1="0" x2="140" y2="80"/>
    <line x1="-100" y1="0" x2="-100" y2="80"/><line x1="100" y1="0" x2="100" y2="80"/>
    <rect x="-155" y="78" width="310" height="3" rx="1"/>
    <!-- Drawer -->
    <rect x="-80" y="-15" width="160" height="15" rx="1"/>
    <line x1="-40" y1="-7" x2="40" y2="-7"/>
    <!-- Books -->
    <rect x="-140" y="-50" width="12" height="35" rx="1"/><rect x="-125" y="-45" width="10" height="30" rx="1"/>
    <rect x="-112" y="-55" width="14" height="40" rx="1"/>
    <!-- Lamp -->
    <line x1="120" y1="-15" x2="120" y2="-35"/>
    <path d="M100,-35 L140,-35 L135,-60 L105,-60 Z"/>
  </g>
  <text x="400" y="380" text-anchor="middle" font-family="'Noto Serif SC','STSong','SimSun',serif" font-size="32" font-weight="500" letter-spacing="6" fill="#1a1a1a">新中式黑胡桃书桌</text>
  <text x="400" y="415" text-anchor="middle" font-family="'Helvetica Neue',Arial,sans-serif" font-size="13" letter-spacing="5" fill="#999">SP-SD-5503</text>
  <line x1="340" y1="435" x2="460" y2="435" stroke="url(#gold)" stroke-width="1" stroke-linecap="round"/>
</svg>
