<svg xmlns="http://www.w3.org/2000/svg" viewBox="0 0 120 120">
  <defs><linearGradient id="g" x1="0" y1="0" x2="1" y2="1"><stop offset="0%" stop-color="#c9a84c"/><stop offset="100%" stop-color="#8b6914"/></linearGradient></defs>
  <rect width="120" height="120" fill="#fafaf8" rx="4"/>
  <!-- Sofa -->
  <g transform="translate(60,50)" stroke="url(#g)" fill="none" stroke-width="2" stroke-linecap="round" stroke-linejoin="round">
    <path d="M-35,15 Q-45,15 -45,5 L-45,-15 Q-45,-25 -30,-25 L30,-25 Q45,-25 45,-15 L45,5 Q45,15 35,15"/>
    <path d="M-35,15 L-35,30 Q-35,38 -25,38 L25,38 Q35,38 35,30 L35,15"/>
    <line x1="-30" y1="38" x2="-30" y2="45"/><line x1="30" y1="38" x2="30" y2="45"/>
    <path d="M-45,5 Q-55,5 -55,15 L-55,30 Q-55,38 -45,38"/>
    <path d="M45,5 Q55,5 55,15 L55,30 Q55,38 45,38"/>
  </g>
  <text x="60" y="95" text-anchor="middle" font-family="'Noto Serif SC',serif" font-size="12" fill="#1a1a1a" letter-spacing="2">客厅</text>
</svg>
