<?xml version="1.0" standalone="no"?><!DOCTYPE svg PUBLIC "-//W3C//DTD SVG 1.1//EN" "http://www.w3.org/Graphics/SVG/1.1/DTD/svg11.dtd"><svg class="icon" width="200px" height="200.00px" viewBox="0 0 1024 1024" version="1.1" xmlns="http://www.w3.org/2000/svg"><path fill="#8a8a8a" d="M594.275145 558.760694h372.112524c19.335645 0 23.873603 4.340655 23.873603 23.478998v383.753372c0 15.389595-4.932563 20.519461-20.519461 20.51946h-879.969171c-15.389595 0-20.519461-5.327168-20.519461-20.716763V67.082852c0-15.192293 4.537958-19.73025 19.927553-19.730251h485.364162c16.178805 0 19.73025 4.143353 19.730251 21.703276v489.704817zM100.82158 77.145279v877.404239H248.601156c0-33.738728-0.394605-66.885549 0-100.03237 0.591908-44.984971 43.209249-88.786127 99.24316-77.737187 42.025434 8.286705 68.069364 42.420039 68.069364 85.431985v92.337572h147.582274V77.342582c-154.290559-0.197303-307.98921-0.197303-462.674374-0.197303z m494.242775 512.986513v364.220424h364.023121V590.131792H595.064355zM264.385356 954.352216h136.138729v-90.364547c0-4.932563-0.986513-9.865125-1.57842-14.600386-3.748748-33.146821-32.554913-57.612331-66.688247-58.401541-29.989981-0.591908-64.320617 21.308671-67.280154 58.796146-2.762235 34.330636-0.591908 69.253179-0.591908 104.570328zM437.814258 138.309056c15.389595 0 30.976493 0.197303 46.366089-0.197303 8.089403-0.197303 11.04894 2.959538 11.04894 11.048941-0.197303 31.173796-0.394605 62.544894 0 93.718689 0 8.484008-4.143353 11.04894-11.246243 11.048941h-92.732177c-7.694798 0-11.443545-3.94605-11.443545-11.443546V148.766089c0-7.8921 3.748748-10.851638 11.640848-10.654336 15.586898 0.394605 30.976493 0.197303 46.366088 0.197303z m41.038921 98.651252V154.290559h-82.077842v82.669749h82.077842zM495.031985 691.939884c0 15.7842-0.197303 31.568401 0 47.155299 0.197303 7.694798-2.959538 10.654335-10.457033 10.457033-31.568401-0.197303-62.939499-0.197303-94.5079 0-7.300193 0-10.25973-3.354143-10.25973-10.062428-0.197303-31.765703 0-63.728709 0-95.494412 0-7.300193 4.143353-10.654335 11.246243-10.654336h92.534874c8.089403 0 11.83815 3.354143 11.443546 12.035453-0.197303 15.7842 0 31.173796 0 46.563391z m-16.178806 41.630829V651.098266h-82.077842v82.472447h82.077842zM437.616956 583.818112c-15.7842 0-31.568401-0.394605-47.352601 0.197302-7.300193 0.197303-10.457033-2.959538-10.457033-9.667822v-95.691715c0-6.905588 3.94605-10.25973 10.457033-10.259731 31.568401-0.197303 63.136802-0.197303 94.705202 0 7.10289 0 10.25973 3.354143 10.25973 11.246243-0.394605 31.173796-0.394605 62.347592 0 93.71869 0 8.286705-3.354143 10.851638-11.246243 10.654335-15.389595-0.394605-30.779191-0.197303-46.366088-0.197302z m-40.841619-98.256648v82.275145h82.275145v-82.275145h-82.275145zM226.305973 138.309056c15.389595 0 30.976493 0.197303 46.366089 0 7.694798-0.197303 11.443545 2.564933 11.443545 10.851638-0.197303 31.173796-0.197303 62.347592 0 93.521387 0 8.089403-3.94605 11.443545-11.443545 11.443545-31.173796 0-62.347592 0.197303-93.521388 0-7.497495 0-11.246243-3.94605-11.246242-11.83815 0.197303-30.779191 0.197303-61.755684 0-92.534875 0-8.286705 3.748748-11.640848 12.035452-11.443545 15.389595 0.197303 30.976493 0 46.366089 0zM183.885934 236.763006h84.050868V154.290559H183.885934V236.763006zM225.516763 749.552216c-15.389595 0-30.976493-0.197303-46.366089 0.197302-8.089403 0.197303-11.443545-3.354143-11.443545-11.04894v-93.71869c0-7.300193 3.748748-11.246243 10.851638-11.246243 31.568401-0.197303 63.136802-0.197303 94.705202 0 6.905588 0 10.654335 3.551445 10.654335 11.048941-0.197303 31.568401 0 63.136802 0 94.705202 0 7.694798-3.748748 10.25973-11.04894 10.25973-15.7842-0.197303-31.568401-0.197303-47.352601-0.197302z m42.025434-15.784201v-82.867052H183.885934v82.867052h83.656263zM225.714066 583.818112c-15.389595 0-30.779191-0.197303-46.366089 0.197302-7.8921 0.197303-11.640848-2.762235-11.640848-10.654335 0-31.173796 0.197303-62.347592 0-93.521387 0-7.497495 3.94605-11.04894 10.654335-11.246243 31.765703-0.197303 63.728709-0.197303 95.494413 0 6.31368 0 10.062428 3.551445 10.062427 10.654335-0.197303 31.568401-0.197303 62.939499 0 94.5079 0 7.694798-3.748748 10.25973-11.04894 10.062428-15.586898-0.197303-31.371098 0-47.155298 0z m42.025433-15.784201v-82.275144H184.083237v82.275144h83.656262zM437.419653 304.04316c16.178805 0 32.160308 0.197303 48.339114 0 6.510983 0 9.667823 2.36763 9.47052 9.273218-0.197303 32.160308-0.197303 64.320617 0 96.480925 0 6.31368-2.959538 9.075915-8.878613 9.075915h-97.467437c-6.31368 0-8.878613-3.94605-8.878613-9.470521v-96.480924c0-6.31368 3.354143-9.075915 10.062428-8.878613 15.7842 0.197303 31.568401 0 47.352601 0zM396.578035 402.102505h82.275144v-82.275145H396.578035v82.275145zM226.108671 304.04316c15.7842 0 31.568401 0.197303 47.352601 0 7.694798-0.197303 10.654335 3.15684 10.457032 10.654335-0.197303 31.173796-0.197303 62.544894 0 93.71869 0 7.694798-3.748748 10.654335-10.851637 10.654335h-94.705203c-7.300193 0-10.654335-3.551445-10.654335-10.851638v-93.718689c0-7.300193 3.354143-10.457033 10.851638-10.259731 15.981503 0 31.765703-0.197303 47.549904-0.197302z m-42.025434 15.7842v82.275145h83.853565v-82.275145H184.083237zM741.660116 713.248555c0 11.83815-0.394605 23.676301 0.197302 35.514451 0.197303 7.497495-3.551445 10.457033-9.865125 10.457033-24.070906 0.197303-47.944509 0.197303-72.015414 0-6.510983 0-10.25973-3.94605-10.259731-10.654336v-72.015414c0-6.708285 3.551445-9.865125 10.654336-9.865125 24.070906 0.197303 47.944509 0.197303 72.015414 0 7.10289 0 9.865125 2.959538 9.667823 10.062428-0.591908 12.232755-0.394605 24.268208-0.394605 36.500963z m-15.981503-29.989981h-58.993449v58.796147h58.993449v-58.796147zM813.083622 712.656647c0-12.232755 0.197303-24.268208 0-36.500963-0.197303-6.708285 2.564933-9.47052 9.273218-9.47052 24.268208 0.197303 48.536416 0.197303 73.001927 0 7.300193 0 10.062428 3.94605 10.062428 10.25973 0.197303 23.676301 0.197303 47.352601 0 71.028902 0 7.694798-4.340655 11.246243-11.838151 11.246243h-69.055876c-8.089403 0-11.83815-3.551445-11.246243-12.035453 0.197303-11.443545-0.197303-23.084393-0.197303-34.527939z m15.784201 29.200771h59.190751v-58.598844h-59.190751V741.857418zM741.660116 847.414258c0 12.232755-0.197303 24.268208 0 36.500964 0.197303 6.708285-2.762235 9.667823-9.273218 9.667822h-73.001927c-6.708285 0-9.667823-3.94605-9.667823-9.865125-0.197303-24.268208-0.197303-48.733719 0-73.001927 0-6.510983 3.94605-9.865125 10.851638-9.667822 23.676301 0.197303 47.352601 0.197303 71.028902 0 7.694798 0 10.457033 3.551445 10.25973 10.851637-0.394605 11.83815-0.197303 23.676301-0.197302 35.514451z m-15.784201-29.792678h-59.388054v59.979961h59.388054v-59.979961zM813.083622 847.019653c0-11.83815 0.197303-23.676301 0-35.514451-0.197303-6.905588 2.564933-10.25973 9.667823-10.25973 24.070906 0.197303 47.944509 0.197303 72.015414 0 7.300193 0 10.457033 3.94605 10.457033 10.25973 0.197303 24.070906 0.197303 47.944509 0 72.015415 0 7.10289-3.94605 10.457033-11.246243 10.457032-23.281696-0.197303-46.760694-0.197303-70.042389 0-8.089403 0-11.04894-3.354143-10.851638-11.246242 0.197303-12.035453 0-23.873603 0-35.711754z m75.172255-29.792678h-59.190752v59.979961h59.190752v-59.979961z" /></svg>