<?xml version="1.0" standalone="no"?><!DOCTYPE svg PUBLIC "-//W3C//DTD SVG 1.1//EN" "http://www.w3.org/Graphics/SVG/1.1/DTD/svg11.dtd"><svg class="icon" width="200px" height="200.00px" viewBox="0 0 1024 1024" version="1.1" xmlns="http://www.w3.org/2000/svg"><path fill="#8a8a8a" d="M512.5 961.2c-60.5 0-119.1-11.9-174.4-35.2-53.4-22.6-101.3-54.9-142.4-96s-73.4-89-96-142.4c-23.4-55.3-35.2-113.9-35.2-174.4s11.9-119.1 35.2-174.4c22.6-53.4 54.9-101.3 96-142.4s89-73.4 142.4-96C393.4 77 452 65.2 512.5 65.2s119.1 11.9 174.4 35.2c53.4 22.6 101.3 54.9 142.4 96s73.4 89 96 142.4c23.4 55.3 35.2 113.9 35.2 174.4s-11.9 119.1-35.2 174.4c-22.6 53.4-54.9 101.3-96 142.4-41.1 41.1-89 73.4-142.4 96-55.2 23.4-113.9 35.2-174.4 35.2z m0-814.3c-202 0-366.3 164.3-366.3 366.3s164.3 366.3 366.3 366.3 366.3-164.3 366.3-366.3-164.3-366.3-366.3-366.3zM662.6 470H553.2V267.7c0-22.4-18.3-40.7-40.7-40.7-22.4 0-40.7 18.3-40.7 40.7v243c0 22.4 18.3 40.7 40.7 40.7h150.1c22.4 0 40.7-18.3 40.7-40.7 0-22.4-18.3-40.7-40.7-40.7z" /></svg>