<svg xmlns="http://www.w3.org/2000/svg" viewBox="0 0 160 160" width="160" height="160">
  <defs>
    <linearGradient id="goldI" x1="0" y1="0" x2="1" y2="1">
      <stop offset="0%" stop-color="#c9a84c"/>
      <stop offset="30%" stop-color="#8b6914"/>
      <stop offset="50%" stop-color="#d4b86a"/>
      <stop offset="70%" stop-color="#8b6914"/>
      <stop offset="100%" stop-color="#6b4f10"/>
    </linearGradient>
    <linearGradient id="woodI" x1="0" y1="0" x2="0" y2="1">
      <stop offset="0%" stop-color="#2a2a2a"/>
      <stop offset="40%" stop-color="#1a1a1a"/>
      <stop offset="100%" stop-color="#0d0d0d"/>
    </linearGradient>
  </defs>

  <!-- Cream circle -->
  <circle cx="80" cy="80" r="74" fill="#fafaf8"/>

  <g transform="translate(15, 18) scale(0.9)">
    <polygon points="70,0 145,55 70,115 0,55"
             fill="#fafaf8" stroke="url(#woodI)" stroke-width="3"
             stroke-linejoin="round"/>
    <polygon points="70,8 137,55 70,107 3,55"
             fill="none" stroke="#1a1a1a" stroke-width="0.6"
             stroke-linejoin="round" opacity="0.25"/>
    <path d="M70,24 Q100,55 70,91"
          fill="none" stroke="url(#goldI)" stroke-width="2.2"
          stroke-linecap="round"/>
    <path d="M70,36 Q88,55 70,77"
          fill="none" stroke="url(#goldI)" stroke-width="1.5"
          stroke-linecap="round"/>
    <circle cx="70" cy="55" r="5" fill="url(#goldI)"/>
    <circle cx="70" cy="55" r="8" fill="none" stroke="url(#goldI)" stroke-width="0.7" opacity="0.5"/>
    <line x1="70" y1="3" x2="70" y2="14" stroke="url(#goldI)" stroke-width="1.3" stroke-linecap="round"/>
    <line x1="64" y1="8" x2="76" y2="8" stroke="url(#goldI)" stroke-width="1.3" stroke-linecap="round"/>
    <line x1="70" y1="105" x2="70" y2="112" stroke="url(#goldI)" stroke-width="0.9" stroke-linecap="round" opacity="0.6"/>
  </g>
</svg>
