<svg xmlns="http://www.w3.org/2000/svg" viewBox="0 0 600 600">
  <defs>
    <linearGradient id="gold" x1="0" y1="0" x2="1" y2="1"><stop offset="0%" stop-color="#c9a84c"/><stop offset="50%" stop-color="#d4b86a"/><stop offset="100%" stop-color="#8b6914"/></linearGradient>
    <pattern id="dots" width="30" height="30" patternUnits="userSpaceOnUse"><circle cx="15" cy="15" r="0.4" fill="#8b6914" opacity="0.05"/></pattern>
  </defs>
  <rect width="600" height="600" fill="#fafaf8"/>
  <rect width="600" height="600" fill="url(#dots)"/>
  <!-- Bed -->
  <g transform="translate(300,250)" stroke="url(#gold)" fill="none" stroke-width="2.2" stroke-linecap="round" stroke-linejoin="round" opacity="0.3">
    <path d="M-155,-15 Q-155,-50 0,-60 Q155,-50 155,-15"/>
    <rect x="-155" y="-15" width="310" height="100" rx="3"/>
    <path d="M-100,-10 Q-85,-22 -65,-10"/><path d="M65,-10 Q85,-22 100,-10"/>
    <line x1="-145" y1="85" x2="-145" y2="115"/><line x1="145" y1="85" x2="145" y2="115"/>
    <rect x="-155" y="113" width="310" height="3" rx="1"/>
  </g>
  <text x="300" y="400" text-anchor="middle" font-family="'Noto Serif SC','STSong',serif" font-size="28" font-weight="500" letter-spacing="6" fill="#1a1a1a">轻奢真皮软包床</text>
  <text x="300" y="435" text-anchor="middle" font-family="'Helvetica Neue',Arial,sans-serif" font-size="13" letter-spacing="5" fill="#999">SP-BD-9902</text>
  <line x1="240" y1="455" x2="360" y2="455" stroke="url(#gold)" stroke-width="1.2" stroke-linecap="round"/>
</svg>
