<svg xmlns="http://www.w3.org/2000/svg" viewBox="0 0 600 600"><defs><linearGradient id="g" x1="0" y1="0" x2="1" y2="1"><stop offset="0%" stop-color="#c9a84c"/><stop offset="50%" stop-color="#d4b86a"/><stop offset="100%" stop-color="#8b6914"/></linearGradient><pattern id="d" width="30" height="30" patternUnits="userSpaceOnUse"><circle cx="15" cy="15" r="0.4" fill="#8b6914" opacity=".05"/></pattern></defs><rect width="600" height="600" fill="#fafaf8"/><rect width="600" height="600" fill="url(#d)"/><g transform="translate(300,240)" stroke="url(#g)" fill="none" stroke-width="2.2" stroke-linecap="round" stroke-linejoin="round" opacity=".3"><rect x="-155" y="-105" width="310" height="175" rx="2"/><line x1="-155" y1="-60" x2="155" y2="-60"/><line x1="-155" y1="-15" x2="155" y2="-15"/><line x1="-155" y1="30" x2="155" y2="30"/><line x1="-80" y1="-105" x2="-80" y2="70"/><line x1="0" y1="-105" x2="0" y2="70"/><line x1="80" y1="-105" x2="80" y2="70"/><rect x="-145" y="-98" width="12" height="33" rx="1"/><rect x="-128" y="-92" width="10" height="28" rx="1"/><rect x="-60" y="-98" width="14" height="33" rx="1"/><rect x="-42" y="-95" width="10" height="30" rx="1"/><rect x="12" y="-55" width="12" height="33" rx="1"/><rect x="28" y="-52" width="10" height="28" rx="1"/><rect x="88" y="-55" width="14" height="33" rx="1"/><rect x="-145" y="35" width="14" height="33" rx="1"/><rect x="12" y="35" width="12" height="33" rx="1"/></g><text x="300" y="400" text-anchor="middle" font-family="'Noto Serif SC','STSong',serif" font-size="28" font-weight="500" letter-spacing="6" fill="#1a1a1a">极简组合书柜</text><text x="300" y="435" text-anchor="middle" font-family="'Helvetica Neue',Arial,sans-serif" font-size="13" letter-spacing="5" fill="#999">SP-BK-6607</text><line x1="240" y1="455" x2="360" y2="455" stroke="url(#g)" stroke-width="1.2" stroke-linecap="round"/></svg>
