<svg xmlns="http://www.w3.org/2000/svg" viewBox="0 0 600 600"><defs><linearGradient id="bg" x1="0" y1="0" x2="0" y2="1"><stop offset="0%" stop-color="#fafaf7"/><stop offset="100%" stop-color="#f5f0e8"/></linearGradient><linearGradient id="gold" x1="0" y1="0" x2="1" y2="1"><stop offset="0%" stop-color="#c9a84c"/><stop offset="100%" stop-color="#8b6914"/></linearGradient><filter id="shadow" x="-5%" y="-5%" width="115%" height="115%"><feDropShadow dx="0" dy="8" stdDeviation="16" flood-color="#2C1810" flood-opacity="0.08"/></filter><pattern id="texture" width="60" height="60" patternUnits="userSpaceOnUse"><circle cx="30" cy="30" r="0.3" fill="#8b6914" opacity="0.03"/></pattern></defs><rect width="600" height="600" fill="url(#bg)"/><rect width="600" height="600" fill="url(#texture)"/>
<g transform="translate(300,260)" filter="url(#shadow)"><path d="M-180,-20 Q-180,-85 0,-100 Q180,-85 180,-20" fill="#2C1810" fill-opacity="0.04" stroke="#1a1a1a" stroke-width="2.5" stroke-linejoin="round"/><path d="M-155,-20 Q-155,-70 0,-85 Q155,-70 155,-20" fill="none" stroke="#8b6914" stroke-width="0.8" opacity="0.3"/><rect x="-180" y="-20" width="360" height="110" rx="4" fill="#2C1810" fill-opacity="0.02" stroke="#1a1a1a" stroke-width="2.5"/><rect x="-145" y="-15" width="95" height="58" rx="18" fill="#2C1810" fill-opacity="0.02" stroke="#1a1a1a" stroke-width="1.5"/><rect x="50" y="-15" width="95" height="58" rx="18" fill="#2C1810" fill-opacity="0.02" stroke="#1a1a1a" stroke-width="1.5"/><line x1="-165" y1="45" x2="165" y2="45" stroke="#8b6914" stroke-width="0.6" opacity="0.3"/><line x1="-170" y1="90" x2="-170" y2="125" stroke="#1a1a1a" stroke-width="2.5" stroke-linecap="round"/><line x1="170" y1="90" x2="170" y2="125" stroke="#1a1a1a" stroke-width="2.5" stroke-linecap="round"/><rect x="-180" y="123" width="360" height="3" rx="1" fill="#2C1810" fill-opacity="0.03" stroke="#1a1a1a" stroke-width="1"/></g><rect x="220" y="430" width="160" height="1.5" fill="url(#gold)" rx="0.5"/><text x="300" y="465" text-anchor="middle" font-family="'Noto Serif SC','STSong',serif" font-size="26" font-weight="500" letter-spacing="7" fill="#1a1a1a">轻奢真皮软包床</text><text x="300" y="492" text-anchor="middle" font-family="'Helvetica Neue',Arial,sans-serif" font-size="11" letter-spacing="5" fill="#999">SP-BD-9902</text></svg>
