<svg xmlns="http://www.w3.org/2000/svg" viewBox="0 0 600 600"><defs><linearGradient id="g" x1="0" y1="0" x2="1" y2="1"><stop offset="0%" stop-color="#c9a84c"/><stop offset="50%" stop-color="#d4b86a"/><stop offset="100%" stop-color="#8b6914"/></linearGradient><pattern id="d" width="30" height="30" patternUnits="userSpaceOnUse"><circle cx="15" cy="15" r="0.4" fill="#8b6914" opacity=".05"/></pattern></defs><rect width="600" height="600" fill="#fafaf8"/><rect width="600" height="600" fill="url(#d)"/><g transform="translate(300,245)" stroke="url(#g)" fill="none" stroke-width="2.2" stroke-linecap="round" stroke-linejoin="round" opacity=".3"><rect x="-155" y="-20" width="310" height="20" rx="2"/><line x1="-155" y1="0" x2="-155" y2="50"/><line x1="155" y1="0" x2="155" y2="50"/><line x1="-130" y1="-20" x2="-130" y2="50"/><line x1="130" y1="-20" x2="130" y2="50"/><rect x="-165" y="48" width="330" height="4" rx="1"/><rect x="-110" y="65" width="220" height="10" rx="1"/><line x1="-110" y1="70" x2="-110" y2="95"/><line x1="110" y1="70" x2="110" y2="95"/><rect x="-120" y="93" width="240" height="3" rx="1"/></g><text x="300" y="400" text-anchor="middle" font-family="'Noto Serif SC','STSong',serif" font-size="28" font-weight="500" letter-spacing="6" fill="#1a1a1a">轻奢岩板组合茶几</text><text x="300" y="435" text-anchor="middle" font-family="'Helvetica Neue',Arial,sans-serif" font-size="13" letter-spacing="5" fill="#999">SP-CT-3302</text><line x1="240" y1="455" x2="360" y2="455" stroke="url(#g)" stroke-width="1.2" stroke-linecap="round"/></svg>
