<svg xmlns="http://www.w3.org/2000/svg" viewBox="0 0 600 600"><defs><linearGradient id="g" x1="0" y1="0" x2="1" y2="1"><stop offset="0%" stop-color="#c9a84c"/><stop offset="50%" stop-color="#d4b86a"/><stop offset="100%" stop-color="#8b6914"/></linearGradient><pattern id="d" width="30" height="30" patternUnits="userSpaceOnUse"><circle cx="15" cy="15" r="0.4" fill="#8b6914" opacity=".05"/></pattern></defs><rect width="600" height="600" fill="#fafaf8"/><rect width="600" height="600" fill="url(#d)"/><g transform="translate(300,245)" stroke="url(#g)" fill="none" stroke-width="2.2" stroke-linecap="round" stroke-linejoin="round" opacity=".3"><path d="M-35,35 L-35,-45 Q-35,-70 -15,-75 L15,-75 Q35,-70 35,-45 L35,35"/><path d="M-35,35 L-42,62 L-42,95 L42,95 L42,62 L35,35"/><line x1="-42" y1="95" x2="-42" y2="115"/><line x1="42" y1="95" x2="42" y2="115"/><g transform="translate(90,15)scale(.85)"><path d="M-35,35 L-35,-45 Q-35,-70 -15,-75 L15,-75 Q35,-70 35,-45 L35,35"/><path d="M-35,35 L-42,62 L-42,95 L42,95 L42,62 L35,35"/><line x1="-42" y1="95" x2="-42" y2="115"/><line x1="42" y1="95" x2="42" y2="115"/></g></g><text x="300" y="400" text-anchor="middle" font-family="'Noto Serif SC','STSong',serif" font-size="26" font-weight="500" letter-spacing="5" fill="#1a1a1a">轻奢皮质餐椅（6把装）</text><text x="300" y="435" text-anchor="middle" font-family="'Helvetica Neue',Arial,sans-serif" font-size="13" letter-spacing="5" fill="#999">SP-DC-4408S</text><line x1="240" y1="455" x2="360" y2="455" stroke="url(#g)" stroke-width="1.2" stroke-linecap="round"/></svg>
