<svg xmlns="http://www.w3.org/2000/svg" viewBox="0 0 600 600"><defs><linearGradient id="bg" x1="0" y1="0" x2="0" y2="1"><stop offset="0%" stop-color="#fafaf7"/><stop offset="100%" stop-color="#f5f0e8"/></linearGradient><linearGradient id="gold" x1="0" y1="0" x2="1" y2="1"><stop offset="0%" stop-color="#c9a84c"/><stop offset="100%" stop-color="#8b6914"/></linearGradient><filter id="shadow" x="-5%" y="-5%" width="115%" height="115%"><feDropShadow dx="0" dy="8" stdDeviation="16" flood-color="#2C1810" flood-opacity="0.08"/></filter><pattern id="texture" width="60" height="60" patternUnits="userSpaceOnUse"><circle cx="30" cy="30" r="0.3" fill="#8b6914" opacity="0.03"/></pattern></defs><rect width="600" height="600" fill="url(#bg)"/><rect width="600" height="600" fill="url(#texture)"/>
<g transform="translate(300,255)" filter="url(#shadow)"><path d="M-40,42 L-40,-50 Q-40,-82 -18,-87 L18,-87 Q40,-82 40,-50 L40,42" fill="#2C1810" fill-opacity="0.02" stroke="#1a1a1a" stroke-width="2.5" stroke-linejoin="round"/><path d="M-40,42 L-50,70 L-50,112 L50,112 L50,70 L40,42" fill="#2C1810" fill-opacity="0.03" stroke="#1a1a1a" stroke-width="2.5" stroke-linejoin="round"/><line x1="-50" y1="112" x2="-50" y2="140" stroke="#1a1a1a" stroke-width="2.5" stroke-linecap="round"/><line x1="50" y1="112" x2="50" y2="140" stroke="#1a1a1a" stroke-width="2.5" stroke-linecap="round"/><g transform="translate(110,20) scale(0.85)"><path d="M-40,42 L-40,-50 Q-40,-82 -18,-87 L18,-87 Q40,-82 40,-50 L40,42" fill="#2C1810" fill-opacity="0.02" stroke="#1a1a1a" stroke-width="2" stroke-linejoin="round"/><path d="M-40,42 L-50,70 L-50,112 L50,112 L50,70 L40,42" fill="#2C1810" fill-opacity="0.03" stroke="#1a1a1a" stroke-width="2" stroke-linejoin="round"/><line x1="-50" y1="112" x2="-50" y2="138" stroke="#1a1a1a" stroke-width="2" stroke-linecap="round"/><line x1="50" y1="112" x2="50" y2="138" stroke="#1a1a1a" stroke-width="2" stroke-linecap="round"/></g></g><rect x="220" y="430" width="160" height="1.5" fill="url(#gold)" rx="0.5"/><text x="300" y="465" text-anchor="middle" font-family="'Noto Serif SC','STSong',serif" font-size="24" font-weight="500" letter-spacing="5" fill="#1a1a1a">轻奢皮质餐椅（6把装）</text><text x="300" y="492" text-anchor="middle" font-family="'Helvetica Neue',Arial,sans-serif" font-size="11" letter-spacing="5" fill="#999">SP-DC-4408S</text></svg>
