<svg xmlns="http://www.w3.org/2000/svg" viewBox="0 0 600 600">
  <defs>
    <linearGradient id="gold" x1="0" y1="0" x2="1" y2="1"><stop offset="0%" stop-color="#c9a84c"/><stop offset="50%" stop-color="#d4b86a"/><stop offset="100%" stop-color="#8b6914"/></linearGradient>
    <pattern id="dots" width="30" height="30" patternUnits="userSpaceOnUse"><circle cx="15" cy="15" r="0.4" fill="#8b6914" opacity="0.05"/></pattern>
  </defs>
  <rect width="600" height="600" fill="#fafaf8"/>
  <rect width="600" height="600" fill="url(#dots)"/>
  <!-- Dining table -->
  <g transform="translate(300,250)" stroke="url(#gold)" fill="none" stroke-width="2.2" stroke-linecap="round" stroke-linejoin="round" opacity="0.3">
    <ellipse cx="0" cy="0" rx="160" ry="30"/>
    <line x1="-160" y1="30" x2="-160" y2="85"/><line x1="160" y1="30" x2="160" y2="85"/>
    <line x1="-90" y1="30" x2="-90" y2="85"/><line x1="90" y1="30" x2="90" y2="85"/>
    <rect x="-170" y="83" width="340" height="3" rx="1"/>
    <rect x="-35" y="-55" width="28" height="33" rx="3"/><rect x="7" y="-55" width="28" height="33" rx="3"/>
    <rect x="-110" y="-45" width="22" height="28" rx="3"/><rect x="88" y="-45" width="22" height="28" rx="3"/>
    <rect x="-135" y="-25" width="22" height="28" rx="3"/><rect x="113" y="-25" width="22" height="28" rx="3"/>
  </g>
  <text x="300" y="400" text-anchor="middle" font-family="'Noto Serif SC','STSong',serif" font-size="28" font-weight="500" letter-spacing="6" fill="#1a1a1a">意式岩板伸缩餐桌</text>
  <text x="300" y="435" text-anchor="middle" font-family="'Helvetica Neue',Arial,sans-serif" font-size="13" letter-spacing="5" fill="#999">SP-DT-7703</text>
  <line x1="240" y1="455" x2="360" y2="455" stroke="url(#gold)" stroke-width="1.2" stroke-linecap="round"/>
</svg>
