<svg xmlns="http://www.w3.org/2000/svg" viewBox="0 0 600 600"><defs><linearGradient id="bg" x1="0" y1="0" x2="0" y2="1"><stop offset="0%" stop-color="#fafaf7"/><stop offset="100%" stop-color="#f5f0e8"/></linearGradient><linearGradient id="gold" x1="0" y1="0" x2="1" y2="1"><stop offset="0%" stop-color="#c9a84c"/><stop offset="100%" stop-color="#8b6914"/></linearGradient><filter id="shadow" x="-5%" y="-5%" width="115%" height="115%"><feDropShadow dx="0" dy="8" stdDeviation="16" flood-color="#2C1810" flood-opacity="0.08"/></filter><pattern id="texture" width="60" height="60" patternUnits="userSpaceOnUse"><circle cx="30" cy="30" r="0.3" fill="#8b6914" opacity="0.03"/></pattern></defs><rect width="600" height="600" fill="url(#bg)"/><rect width="600" height="600" fill="url(#texture)"/>
<g transform="translate(300,260)" filter="url(#shadow)"><path d="M-70,50 L-70,-50 Q-70,-85 0,-85 Q70,-85 70,-50 L70,50" fill="#2C1810" fill-opacity="0.03" stroke="#1a1a1a" stroke-width="2.5" stroke-linejoin="round"/><path d="M-70,50 L-98,78 L-98,120 L70,120 L70,78 L70,50" fill="#2C1810" fill-opacity="0.04" stroke="#1a1a1a" stroke-width="2.5" stroke-linejoin="round"/><line x1="-98" y1="120" x2="-98" y2="148" stroke="#1a1a1a" stroke-width="3" stroke-linecap="round"/><line x1="70" y1="120" x2="70" y2="148" stroke="#1a1a1a" stroke-width="3" stroke-linecap="round"/></g><rect x="220" y="430" width="160" height="1.5" fill="url(#gold)" rx="0.5"/><text x="300" y="465" text-anchor="middle" font-family="'Noto Serif SC','STSong',serif" font-size="26" font-weight="500" letter-spacing="7" fill="#1a1a1a">意式极简单人休闲椅</text><text x="300" y="492" text-anchor="middle" font-family="'Helvetica Neue',Arial,sans-serif" font-size="11" letter-spacing="5" fill="#999">SP-LC-1109</text></svg>
