<svg xmlns="http://www.w3.org/2000/svg" viewBox="0 0 600 600">
  <defs>
    <linearGradient id="gold" x1="0" y1="0" x2="1" y2="1"><stop offset="0%" stop-color="#c9a84c"/><stop offset="50%" stop-color="#d4b86a"/><stop offset="100%" stop-color="#8b6914"/></linearGradient>
    <pattern id="dots" width="30" height="30" patternUnits="userSpaceOnUse"><circle cx="15" cy="15" r="0.4" fill="#8b6914" opacity="0.05"/></pattern>
  </defs>
  <rect width="600" height="600" fill="#fafaf8"/>
  <rect width="600" height="600" fill="url(#dots)"/>
  <!-- Desk -->
  <g transform="translate(300,250)" stroke="url(#gold)" fill="none" stroke-width="2.2" stroke-linecap="round" stroke-linejoin="round" opacity="0.3">
    <rect x="-170" y="-15" width="340" height="20" rx="2"/>
    <line x1="-160" y1="5" x2="-160" y2="90"/><line x1="160" y1="5" x2="160" y2="90"/>
    <line x1="-120" y1="5" x2="-120" y2="90"/><line x1="120" y1="5" x2="120" y2="90"/>
    <rect x="-175" y="88" width="350" height="3" rx="1"/>
    <rect x="-90" y="-55" width="12" height="40" rx="1"/><rect x="-75" y="-50" width="10" height="35" rx="1"/><rect x="-62" y="-60" width="14" height="45" rx="1"/>
    <line x1="130" y1="-15" x2="130" y2="-40"/><path d="M105,-40 L155,-40 L148,-70 L112,-70 Z"/>
  </g>
  <text x="300" y="400" text-anchor="middle" font-family="'Noto Serif SC','STSong',serif" font-size="28" font-weight="500" letter-spacing="6" fill="#1a1a1a">智能升降办公桌</text>
  <text x="300" y="435" text-anchor="middle" font-family="'Helvetica Neue',Arial,sans-serif" font-size="13" letter-spacing="5" fill="#999">SP-OD-1500</text>
  <line x1="240" y1="455" x2="360" y2="455" stroke="url(#gold)" stroke-width="1.2" stroke-linecap="round"/>
</svg>
