<svg xmlns="http://www.w3.org/2000/svg" viewBox="0 0 600 600"><defs><linearGradient id="g" x1="0" y1="0" x2="1" y2="1"><stop offset="0%" stop-color="#c9a84c"/><stop offset="50%" stop-color="#d4b86a"/><stop offset="100%" stop-color="#8b6914"/></linearGradient><pattern id="d" width="30" height="30" patternUnits="userSpaceOnUse"><circle cx="15" cy="15" r="0.4" fill="#8b6914" opacity=".05"/></pattern></defs><rect width="600" height="600" fill="#fafaf8"/><rect width="600" height="600" fill="url(#d)"/><g transform="translate(300,245)" stroke="url(#g)" fill="none" stroke-width="2.2" stroke-linecap="round" stroke-linejoin="round" opacity=".3"><rect x="-155" y="-100" width="310" height="165" rx="2"/><line x1="-80" y1="-100" x2="-80" y2="65"/><line x1="0" y1="-100" x2="0" y2="65"/><line x1="80" y1="-100" x2="80" y2="65"/><line x1="-155" y1="0" x2="155" y2="0"/><line x1="-135" y1="-80" x2="-25" y2="-80"/><line x1="25" y1="-80" x2="135" y2="-80"/><path d="M-110,-80 L-110,-45 M-110,-45 L-125,-45 M-110,-45 L-95,-45" stroke-width="1.5"/><path d="M-55,-80 L-55,-45 M-55,-45 L-70,-45 M-55,-45 L-40,-45" stroke-width="1.5"/><line x1="-115" y1="22" x2="-45" y2="22"/><line x1="45" y1="22" x2="115" y2="22"/><line x1="-115" y1="44" x2="-45" y2="44"/><line x1="45" y1="44" x2="115" y2="44"/></g><text x="300" y="400" text-anchor="middle" font-family="'Noto Serif SC','STSong',serif" font-size="26" font-weight="500" letter-spacing="5" fill="#1a1a1a">步入式衣帽间系统</text><text x="300" y="435" text-anchor="middle" font-family="'Helvetica Neue',Arial,sans-serif" font-size="13" letter-spacing="5" fill="#999">SP-WD-8800</text><line x1="240" y1="455" x2="360" y2="455" stroke="url(#g)" stroke-width="1.2" stroke-linecap="round"/></svg>
